<svg xmlns="http://www.w3.org/2000/svg" viewBox="0 0 512 512" width="512" height="512">
  <defs>
    <linearGradient id="iconGradC" x1="0%" y1="0%" x2="100%" y2="100%">
      <stop offset="0%" stop-color="#7C6BF0"/>
      <stop offset="100%" stop-color="#5B5BFF"/>
    </linearGradient>
    <linearGradient id="arcGrad" x1="0%" y1="0%" x2="100%" y2="0%">
      <stop offset="0%" stop-color="white"/>
      <stop offset="100%" stop-color="rgba(255,255,255,0.6)"/>
    </linearGradient>
  </defs>
  
  <!-- Background rounded square -->
  <rect x="0" y="0" width="512" height="512" rx="108" fill="url(#iconGradC)"/>
  
  <!-- Three flowing arcs representing orchestrated coordination -->
  <path d="M96 400 C96 400, 160 100, 256 100 C352 100, 416 256, 416 256" 
        stroke="white" stroke-width="14" fill="none" stroke-linecap="round" opacity="0.9"/>
  <path d="M72 348 C72 348, 168 160, 256 160 C344 160, 440 348, 440 348" 
        stroke="white" stroke-width="11" fill="none" stroke-linecap="round" opacity="0.5"/>
  <path d="M128 420 C128 420, 196 240, 256 240 C316 240, 384 420, 384 420" 
        stroke="white" stroke-width="9" fill="none" stroke-linecap="round" opacity="0.28"/>
  
  <!-- Key nodes -->
  <circle cx="256" cy="100" r="24" fill="white"/>
  <circle cx="96" cy="400" r="18" fill="white" opacity="0.85"/>
  <circle cx="416" cy="256" r="18" fill="#FF6B6B"/>
  <circle cx="256" cy="240" r="13" fill="white" opacity="0.5"/>
</svg>
